<svg width="794" height="498" viewBox="0 0 794 498" fill="none" xmlns="http://www.w3.org/2000/svg">
<g clip-path="url(#clip0_1_3)">
<path d="M782.905 496.792H10.2961C5.16993 496.792 1 492.622 1 487.496V10.2961C1 5.16993 5.16993 1 10.2961 1H782.905C788.031 1 792.201 5.16993 792.201 10.2961V487.496C792.201 492.622 788.031 496.792 782.905 496.792Z" fill="#0A0A0A"/>
<path d="M782.905 496.792H10.2961C5.16993 496.792 1 492.622 1 487.496V10.2961C1 5.16993 5.16993 1 10.2961 1H782.905C788.031 1 792.201 5.16993 792.201 10.2961V487.496C792.201 492.622 788.031 496.792 782.905 496.792Z" stroke="#D7D7D7" stroke-width="2" stroke-miterlimit="10"/>
<path d="M61.9411 42.316H26.8225C21.6963 42.316 17.5264 38.1461 17.5264 33.0199V28.8883C17.5264 23.7621 21.6963 19.5922 26.8225 19.5922H61.9411C67.0673 19.5922 71.2372 23.7621 71.2372 28.8883V33.0199C71.2372 38.1461 67.0673 42.316 61.9411 42.316Z" fill="#737373"/>
<path d="M683.747 42.316H663.089C657.963 42.316 653.793 38.1461 653.793 33.0199V28.8883C653.793 23.7621 657.963 19.5922 663.089 19.5922H683.747C688.873 19.5922 693.043 23.7621 693.043 28.8883V33.0199C693.043 38.1461 688.873 42.316 683.747 42.316Z" fill="#737373"/>
<path d="M545.338 166.264C542.49 166.264 540.174 168.581 540.174 171.428V175.56C540.174 178.408 542.49 180.725 545.338 180.725H665.154C668.003 180.725 670.319 178.408 670.319 175.56V171.428C670.319 168.581 668.003 166.264 665.154 166.264H545.338Z" fill="#737373"/>
<path d="M506.088 376.975H26.8225C21.6963 376.975 17.5264 372.806 17.5264 367.679V64.0069C17.5264 58.8807 21.6963 54.7108 26.8225 54.7108H506.088C511.214 54.7108 515.384 58.8807 515.384 64.0069V367.679C515.384 372.806 511.214 376.975 506.088 376.975Z" fill="#737373"/>
<path d="M508.154 478.2H287.113C281.987 478.2 277.817 474.03 277.817 468.904V396.601C277.817 391.474 281.987 387.304 287.113 387.304H508.154C513.28 387.304 517.45 391.474 517.45 396.601V468.904C517.45 474.03 513.28 478.2 508.154 478.2Z" fill="#737373"/>
<path d="M246.975 477.693H25.9348C20.8087 477.693 16.6387 473.523 16.6387 468.397V396.094C16.6387 390.968 20.8087 386.798 25.9348 386.798H246.975C252.102 386.798 256.271 390.968 256.271 396.094V468.397C256.271 473.523 252.102 477.693 246.975 477.693Z" fill="#737373"/>
<path d="M766.379 387.304C771.505 387.304 775.675 391.474 775.675 396.601V468.904C775.675 474.03 771.505 478.2 766.379 478.2H545.338C540.212 478.2 536.042 474.03 536.042 468.904V396.601C536.042 391.474 540.212 387.304 545.338 387.304" fill="#737373"/>
<path d="M545.338 199.317C542.49 199.317 540.174 201.634 540.174 204.481C540.174 207.329 542.49 209.646 545.338 209.646H729.194C732.043 209.646 734.359 207.329 734.359 204.481C734.359 201.634 732.043 199.317 729.194 199.317H545.338Z" fill="#737373"/>
<path d="M545.338 228.238C542.49 228.238 540.174 230.555 540.174 233.402C540.174 236.25 542.49 238.567 545.338 238.567H729.194C732.043 238.567 734.359 236.25 734.359 233.402C734.359 230.555 732.043 228.238 729.194 228.238H545.338Z" fill="#737373"/>
<path d="M545.338 255.093C542.49 255.093 540.174 257.41 540.174 260.258C540.174 263.105 542.49 265.422 545.338 265.422H665.154C668.003 265.422 670.319 263.105 670.319 260.258C670.319 257.41 668.003 255.093 665.154 255.093" fill="#737373"/>
<path d="M725.063 42.316H704.405C699.278 42.316 695.109 38.1461 695.109 33.0199V28.8883C695.109 23.7621 699.278 19.5922 704.405 19.5922H725.063C730.189 19.5922 734.359 23.7621 734.359 28.8883V33.0199C734.359 38.1461 730.189 42.316 725.063 42.316Z" fill="#737373"/>
<path d="M766.379 42.316H745.721C740.594 42.316 736.424 38.1461 736.424 33.0199V28.8883C736.424 23.7621 740.594 19.5922 745.721 19.5922H766.379C771.505 19.5922 775.675 23.7621 775.675 28.8883V33.0199C775.675 38.1461 771.505 42.316 766.379 42.316Z" fill="#737373"/>
<path d="M297.191 90.8046C297.191 82.2916 304.092 75.3905 312.605 75.3905C321.118 75.3905 328.019 82.2916 328.019 90.8046C328.019 97.2681 324.039 102.799 318.397 105.089C320.212 109.184 322.852 112.548 322.852 112.548L307.662 125.206L304.434 103.873C300.085 101.148 297.191 96.3153 297.191 90.8046Z" fill="#ED9DA0"/>
<path d="M270.174 193.041L276.936 179.717L284.715 183.665L277.954 196.989C278.676 199.089 278.516 201.665 277.311 204.039C275.204 208.192 270.709 210.145 267.272 208.401C263.835 206.657 262.757 201.876 264.864 197.722C266.069 195.349 268.054 193.698 270.174 193.041Z" fill="#ED9DA0"/>
<path d="M316.062 132.799L281.904 196.641L268.549 189.496L298.471 124.081" fill="#9333EA"/>
<path d="M297.403 147.761L288.094 191L328.668 192.416C328.668 192.416 323.352 162.387 325.239 157.197L297.403 147.761Z" fill="#ED9DA0"/>
<path d="M359.87 314.324L352.238 319.95L357.865 327.582L365.496 321.956L359.87 314.324Z" fill="#ED9DA0"/>
<path d="M369.312 329.858L353.089 341.818C351.703 342.84 350.075 343.55 348.383 343.87L344.332 344.637C343.495 344.796 342.627 344.455 342.121 343.769C341.528 342.964 341.545 341.853 342.162 341.067L347.073 334.811L353.538 321.482L353.576 321.516C354.51 322.37 355.929 323.655 356.036 323.718C358.032 324.16 359.565 323.912 360.593 322.98C362.385 321.356 362.024 318.169 362.02 318.137L362.017 318.113L362.039 318.1C362.527 317.813 362.997 317.748 363.437 317.909C364.37 318.249 364.857 319.474 364.927 319.662C365.838 319.79 368.207 322.506 368.397 322.726C369.761 322.973 370.699 323.485 371.187 324.247C371.613 324.913 371.696 325.763 371.432 326.773C371.116 327.988 370.363 329.083 369.312 329.858Z" fill="#090814"/>
<path d="M294.426 336.593H284.944V346.074H294.426V336.593Z" fill="#ED9DA0"/>
<path d="M292.807 354.699H272.653C270.931 354.699 269.199 354.304 267.647 353.558L263.931 351.772C263.163 351.403 262.667 350.613 262.667 349.761C262.667 348.761 263.34 347.877 264.303 347.611L271.968 345.49L285.082 338.597L285.091 338.646C285.337 339.888 285.717 341.765 285.765 341.879C287.11 343.419 288.491 344.129 289.871 343.989C292.278 343.745 293.878 340.966 293.894 340.938L293.906 340.917L293.93 340.919C294.494 340.977 294.911 341.205 295.169 341.595C295.718 342.423 295.383 343.697 295.328 343.89C295.986 344.533 296.281 348.126 296.304 348.416C297.254 349.423 297.706 350.392 297.646 351.295C297.594 352.084 297.156 352.817 296.345 353.474C295.37 354.264 294.113 354.699 292.807 354.699Z" fill="#090814"/>
<path d="M333.112 178H287.671L280.428 339.129H296.43L306.77 270.607L348.259 325.424L363.406 311.72L333.112 270.607V178Z" fill="#090814"/>
<path d="M305.078 113.154L322.535 108.908L333.724 123.235C336.389 128.672 336.81 134.94 334.895 140.685L325.617 168.52C325.617 168.52 297.309 168.048 291.176 151.535L289.417 147.872C287.014 142.865 287.559 136.942 290.836 132.458L305.078 113.154Z" fill="#9333EA"/>
<path d="M333.862 101.036C333.862 101.036 333.115 106.459 326.27 106.831L319.425 107.203C319.425 107.203 323.183 90.2269 318.351 93.4486C313.519 96.6703 300.635 83.1639 300.635 83.1639L296.833 90.2943C296.833 90.2943 287.75 87.0052 297.816 78.9509C297.816 78.9509 309.826 69.6654 322.577 75.2414C335.328 80.8174 333.862 101.036 333.862 101.036Z" fill="#090814"/>
<path d="M323.659 205.181L323.335 190.243L332.057 190.054L332.381 204.992C334.008 206.502 335.082 208.85 335.14 211.511C335.241 216.167 332.199 220.01 328.346 220.093C324.492 220.177 321.286 216.47 321.185 211.814C321.128 209.152 322.099 206.761 323.659 205.181Z" fill="#ED9DA0"/>
<path d="M335.7 130.416V202.822H320.553L316.076 131.027" fill="#9333EA"/>
<path d="M156.234 354.389H175.659H192.925H193.62H208.82H312.914H337.685H403.83" stroke="#090814" stroke-width="1.5" stroke-miterlimit="10"/>
<path d="M272.692 203.316H94.2183C90.7364 203.316 87.9038 200.483 87.9038 197.002V103.417C87.9038 99.9356 90.7364 97.1026 94.2183 97.1026H272.692C276.174 97.1026 279.006 99.9356 279.006 103.417V197.002C279.006 200.483 276.174 203.316 272.692 203.316Z" fill="#0A0A0A"/>
<path d="M177.007 207.015L176.962 206.969L176.916 207.015C174.695 204.796 171.096 204.798 168.877 207.019C166.658 209.241 166.613 212.885 168.834 215.104L176.967 223.229L185.095 215.094C187.314 212.872 187.267 209.228 185.047 207.009C182.826 204.79 179.227 204.793 177.008 207.014L177.007 207.015Z" fill="#FF6363"/>
</g>
<defs>
<clipPath id="clip0_1_3">
<rect width="793.201" height="497.792" fill="white"/>
</clipPath>
</defs>
</svg>
